<svg width="8" height="11" viewBox="0 0 8 11" fill="none" xmlns="http://www.w3.org/2000/svg">
<path d="M4 10.5C3.88333 10.5 3.78333 10.4667 3.7 10.4C3.61667 10.3333 3.55417 10.2458 3.5125 10.1375C3.35417 9.67083 3.15417 9.23333 2.9125 8.825C2.67917 8.41667 2.35 7.9375 1.925 7.3875C1.5 6.8375 1.15417 6.3125 0.8875 5.8125C0.629167 5.3125 0.5 4.70833 0.5 4C0.5 3.025 0.8375 2.2 1.5125 1.525C2.19583 0.841666 3.025 0.5 4 0.5C4.975 0.5 5.8 0.841666 6.475 1.525C7.15833 2.2 7.5 3.025 7.5 4C7.5 4.75833 7.35417 5.39167 7.0625 5.9C6.77917 6.4 6.45 6.89583 6.075 7.3875C5.625 7.9875 5.28333 8.4875 5.05 8.8875C4.825 9.27917 4.6375 9.69583 4.4875 10.1375C4.44583 10.2542 4.37917 10.3458 4.2875 10.4125C4.20417 10.4708 4.10833 10.5 4 10.5ZM4 5.25C4.35 5.25 4.64583 5.12917 4.8875 4.8875C5.12917 4.64583 5.25 4.35 5.25 4C5.25 3.65 5.12917 3.35417 4.8875 3.1125C4.64583 2.87083 4.35 2.75 4 2.75C3.65 2.75 3.35417 2.87083 3.1125 3.1125C2.87083 3.35417 2.75 3.65 2.75 4C2.75 4.35 2.87083 4.64583 3.1125 4.8875C3.35417 5.12917 3.65 5.25 4 5.25Z" fill="#757575"/>
</svg>
