<svg width="8" height="8" viewBox="0 0 8 8" fill="none" xmlns="http://www.w3.org/2000/svg">
<path d="M3.99984 7.33317C3.92206 7.33317 3.85539 7.31095 3.79984 7.2665C3.74428 7.22206 3.70262 7.16373 3.67484 7.0915C3.56928 6.78039 3.43595 6.48873 3.27484 6.2165C3.11928 5.94428 2.89984 5.62484 2.6165 5.25817C2.33317 4.8915 2.10262 4.5415 1.92484 4.20817C1.75262 3.87484 1.6665 3.47206 1.6665 2.99984C1.6665 2.34984 1.8915 1.79984 2.3415 1.34984C2.79706 0.894282 3.34984 0.666504 3.99984 0.666504C4.64984 0.666504 5.19984 0.894282 5.64984 1.34984C6.10539 1.79984 6.33317 2.34984 6.33317 2.99984C6.33317 3.50539 6.23595 3.92761 6.0415 4.2665C5.85262 4.59984 5.63317 4.93039 5.38317 5.25817C5.08317 5.65817 4.85539 5.9915 4.69984 6.25817C4.54984 6.51928 4.42484 6.79706 4.32484 7.0915C4.29706 7.16928 4.25262 7.23039 4.1915 7.27484C4.13595 7.31373 4.07206 7.33317 3.99984 7.33317ZM3.99984 3.83317C4.23317 3.83317 4.43039 3.75261 4.5915 3.5915C4.75261 3.43039 4.83317 3.23317 4.83317 2.99984C4.83317 2.7665 4.75261 2.56928 4.5915 2.40817C4.43039 2.24706 4.23317 2.1665 3.99984 2.1665C3.7665 2.1665 3.56928 2.24706 3.40817 2.40817C3.24706 2.56928 3.1665 2.7665 3.1665 2.99984C3.1665 3.23317 3.24706 3.43039 3.40817 3.5915C3.56928 3.75261 3.7665 3.83317 3.99984 3.83317Z" fill="#757575"/>
</svg>
