<svg width="106" height="32" viewBox="0 0 106 32" fill="none" xmlns="http://www.w3.org/2000/svg">
<rect x="1" y="1" width="30" height="30" rx="1" stroke="#FF0000" stroke-width="2"/>
<path d="M7.15 7.168C7.178 7.196 7.192 7.17733 7.192 7.112C7.20133 7.09333 7.206 7.07 7.206 7.042C7.206 7.00467 7.21067 6.96267 7.22 6.916C7.22 6.86 7.22933 6.79467 7.248 6.72C7.26667 6.64533 7.304 6.58933 7.36 6.552C7.81733 6.28133 8.25133 6.286 8.662 6.566L9.74 7.364C9.824 7.45733 9.88933 7.62067 9.936 7.854C9.992 8.08733 10.0247 8.35333 10.034 8.652C10.0527 8.94133 10.0527 9.24467 10.034 9.562C10.0153 9.87 9.992 10.1453 9.964 10.388C9.936 10.4533 9.88 10.5653 9.796 10.724C9.712 10.8733 9.60467 10.99 9.474 11.074L7.612 12.18C7.00533 12.348 6.40333 12.32 5.806 12.096C5.582 12.096 5.36267 12.026 5.148 11.886C4.93333 11.746 4.798 11.5593 4.742 11.326C4.63 11.1393 4.56467 10.948 4.546 10.752C4.53667 10.5467 4.56 10.3553 4.616 10.178L5.666 7.77C5.694 7.742 5.72667 7.7 5.764 7.644C5.80133 7.588 5.83867 7.52733 5.876 7.462C5.96933 7.35933 6.1 7.22867 6.268 7.07L7.15 7.168ZM13.044 5.39L13.618 5.6C13.702 5.69333 13.7533 5.85667 13.772 6.09L13.814 6.51L13.828 7.714L13.646 8.386L13.87 8.68C14.0007 8.69867 14.178 8.69867 14.402 8.68C14.5047 8.67067 14.6027 8.66133 14.696 8.652C14.7987 8.64267 14.892 8.63333 14.976 8.624C15.1813 8.61467 15.4007 8.57733 15.634 8.512C15.7367 8.49333 15.8347 8.47467 15.928 8.456C16.0307 8.43733 16.124 8.428 16.208 8.428L16.754 8.792L16.586 9.702L16.362 10.08C16.3433 10.2667 16.2547 10.3553 16.096 10.346L15.074 10.29C15.046 10.29 14.9947 10.2853 14.92 10.276C14.8547 10.2573 14.7753 10.2433 14.682 10.234C14.5887 10.2153 14.4907 10.206 14.388 10.206C14.2853 10.1967 14.1873 10.1967 14.094 10.206L13.898 10.15C13.8327 10.1407 13.7813 10.1593 13.744 10.206C13.7067 10.2527 13.674 10.3087 13.646 10.374C13.6273 10.4487 13.6133 10.5233 13.604 10.598C13.604 10.6727 13.6087 10.724 13.618 10.752L13.576 11.368L13.786 11.858L13.702 12.39L13.73 13.3L12.064 13.678L11.77 13.44L11.896 12.194L11.812 11.256L11.938 10.388L11.868 6.916L12.176 5.572L13.044 5.39ZM6.94 9.226L6.87 9.324C6.85133 9.36133 6.828 9.39867 6.8 9.436C6.772 9.464 6.744 9.50133 6.716 9.548C6.66 9.632 6.60867 9.72067 6.562 9.814C6.52467 9.90733 6.51067 9.982 6.52 10.038C6.52 10.1407 6.52933 10.2293 6.548 10.304C6.548 10.3693 6.60867 10.43 6.73 10.486C6.82333 10.5327 6.94933 10.5513 7.108 10.542H7.542C7.58867 10.5513 7.64467 10.556 7.71 10.556C7.78467 10.5467 7.878 10.528 7.99 10.5C8.214 10.444 8.34933 10.3413 8.396 10.192C8.424 10.108 8.43333 10.0287 8.424 9.954C8.424 9.87 8.41467 9.8 8.396 9.744C8.35867 9.69733 8.34 9.646 8.34 9.59C8.32133 9.52467 8.33067 9.45467 8.368 9.38C8.368 9.156 8.39133 8.99733 8.438 8.904C8.48467 8.78267 8.52667 8.70333 8.564 8.666C8.58267 8.638 8.592 8.56333 8.592 8.442C8.592 8.32067 8.56867 8.22733 8.522 8.162C8.47533 8.106 8.41467 8.064 8.34 8.036C8.26533 8.008 8.186 7.98933 8.102 7.98C8.018 7.97067 7.93867 7.97067 7.864 7.98C7.79867 7.98 7.752 7.994 7.724 8.022L6.94 9.226ZM25.1427 10.024C25.1054 10.024 25.0774 10.0287 25.0587 10.038L24.4987 11.2L23.7147 11.816L23.1407 12.124C23.0847 12.1707 23.0334 12.2267 22.9867 12.292C22.9494 12.348 22.9261 12.4087 22.9167 12.474C22.9167 12.5393 22.9354 12.6 22.9727 12.656C23.0101 12.7027 23.0754 12.7307 23.1687 12.74L23.5607 12.404C23.7194 12.4507 23.9434 12.4647 24.2327 12.446C24.5221 12.418 24.8347 12.376 25.1707 12.32C25.4974 12.264 25.8241 12.2127 26.1507 12.166C26.4867 12.11 26.7761 12.0727 27.0187 12.054L27.4667 12.18L27.4107 13.02L26.9767 13.566C26.9207 13.5847 26.7994 13.6173 26.6127 13.664C26.4261 13.7107 26.1927 13.762 25.9127 13.818C25.6421 13.8647 25.3341 13.916 24.9887 13.972C24.6527 14.0187 24.3027 14.0467 23.9387 14.056C23.8361 14.168 23.7054 14.224 23.5467 14.224C23.3881 14.224 23.2621 14.182 23.1687 14.098C23.0847 14.1073 23.0054 14.1167 22.9307 14.126C22.8561 14.1353 22.7767 14.14 22.6927 14.14C22.6181 14.1493 22.5434 14.1587 22.4687 14.168C22.4034 14.1773 22.3381 14.182 22.2727 14.182C22.2727 14.07 22.2307 14.0047 22.1467 13.986C22.0721 13.958 21.9881 13.958 21.8947 13.986C21.8014 14.0047 21.7127 14.0373 21.6287 14.084C21.5541 14.14 21.5121 14.1867 21.5027 14.224C21.3067 14.2427 21.1014 14.2613 20.8867 14.28C20.6721 14.2987 20.4714 14.3173 20.2847 14.336L19.7947 14.378C19.6361 14.3967 19.5474 14.4013 19.5287 14.392L18.6467 13.902L18.6047 13.174C18.6887 13.146 18.7587 13.09 18.8147 13.006C18.8801 12.9127 18.9267 12.8053 18.9547 12.684L20.6907 12.32L21.4327 11.592L22.4827 10.458C22.5667 10.402 22.6601 10.3507 22.7627 10.304C22.8654 10.248 22.9681 10.192 23.0707 10.136C23.1174 10.1173 23.1687 10.0987 23.2247 10.08C23.2807 10.052 23.3321 10.0287 23.3787 10.01L23.0847 9.884C22.9634 9.884 22.8467 9.87933 22.7347 9.87C22.6227 9.85133 22.5154 9.842 22.4127 9.842C22.1887 9.82333 21.9787 9.842 21.7827 9.898L20.3827 10.36L19.5707 10.052L19.7247 9.366L19.4867 8.232L19.1367 6.58L18.8567 5.6L19.4867 4.97L20.2987 5.138C20.3547 5.20333 20.4154 5.25467 20.4807 5.292C20.5461 5.32 20.6114 5.34333 20.6767 5.362C20.7794 5.39933 20.9054 5.418 21.0547 5.418L22.0767 5.306L22.4547 5.012L25.3107 4.746L26.5707 5.264C26.5707 5.44133 26.5334 5.628 26.4587 5.824C26.3841 6.02 26.3047 6.21133 26.2207 6.398C26.1461 6.58467 26.0807 6.75733 26.0247 6.916C25.9687 7.07467 25.9594 7.20067 25.9967 7.294L25.6607 8.288L26.2487 9.268L25.8147 9.772L25.1427 10.024ZM21.5867 8.596L22.0627 8.666L24.2607 8.19C24.2701 8.03133 24.2747 7.88667 24.2747 7.756C24.2747 7.62533 24.2467 7.42 24.1907 7.14L24.2607 6.734C24.3167 6.678 24.3307 6.622 24.3027 6.566C24.2841 6.51 24.2514 6.44933 24.2047 6.384C24.0367 6.37467 23.9107 6.37 23.8267 6.37C23.7427 6.37 23.6774 6.37467 23.6307 6.384C23.5841 6.39333 23.5514 6.40733 23.5327 6.426C23.5234 6.44467 23.5094 6.46333 23.4907 6.482L21.8947 6.622L21.0827 6.664L20.8587 6.874L20.9287 7.14C20.9661 7.23333 20.9987 7.30333 21.0267 7.35C21.0547 7.38733 21.0781 7.42467 21.0967 7.462C21.1154 7.49 21.1341 7.532 21.1527 7.588L21.2227 7.77L21.2787 8.428L21.5867 8.596Z" fill="#FF0000"/>
<path d="M10.79 17.62L11.28 18.292L10.972 19.146L10.86 19.832L10.566 20.28L10.594 20.546L9.572 21.232L7.78 21.932L8.578 22.492L9.964 22.086L10.58 22.058L11.224 21.638L11.882 21.498L12.47 21.568V22.268L12.526 22.8L12.358 23.038L11.672 23.22L11.042 23.416L9.488 23.864L8.032 23.99L7.5 23.934L7.038 23.766L6.562 23.738L6.156 22.212L6.464 21.302L7.766 20.336L8.606 20.112L9.264 19.706L9.11 19.468L9.222 19.202L7.514 19.146L5.876 19.342L5.316 19.426L5.218 18.768L5.288 18.054L5.54 17.718H6.884L8.256 17.914L10.79 17.62ZM8.298 24.956C8.69933 24.872 9.03067 24.8207 9.292 24.802C9.55333 24.774 9.77733 24.76 9.964 24.76C10.1413 24.76 10.2953 24.7647 10.426 24.774C10.566 24.774 10.706 24.76 10.846 24.732L11.742 24.578C11.77 24.634 11.8167 24.6807 11.882 24.718C11.9567 24.7553 12.0687 24.774 12.218 24.774L13.254 24.48C13.7393 24.6667 14.0193 24.8207 14.094 24.942C14.178 25.054 14.234 25.18 14.262 25.32L14.234 26.076L13.086 26.09L10.902 26.384L8.158 26.706L6.422 27.042L5.428 26.79L5.204 25.642L6.52 25.124L7.332 25.208L8.256 24.942L8.298 24.956ZM18.4664 21.652L19.7264 20.084L19.6284 19.762L17.7664 19.636L16.8984 19.762C16.833 19.79 16.7444 19.8133 16.6324 19.832C16.5297 19.8413 16.427 19.8413 16.3244 19.832C16.2124 19.832 16.1144 19.818 16.0304 19.79C15.9464 19.762 15.895 19.706 15.8764 19.622L15.7644 18.432L17.9484 18.124L21.0144 18.096L21.7284 18.572V19.076L21.3224 19.846L21.0564 20.798L20.4124 21.834L20.3844 22.128L19.8104 23.038L19.6424 23.836C19.5864 23.8547 19.5164 23.8687 19.4324 23.878L19.1804 23.934C19.0684 23.962 18.9564 23.9853 18.8444 24.004C18.7417 24.0227 18.6484 24.032 18.5644 24.032L17.7524 23.472L18.4664 21.652ZM25.6484 28.652L25.4664 28.68C25.3544 28.708 25.2284 28.722 25.0884 28.722C24.939 28.75 24.7897 28.7687 24.6404 28.778C24.491 28.7873 24.3744 28.792 24.2904 28.792C23.9917 28.7733 23.805 28.6613 23.7304 28.456C23.665 28.26 23.651 28.0407 23.6884 27.798C23.6884 27.714 23.6884 27.63 23.6884 27.546C23.6977 27.462 23.7024 27.378 23.7024 27.294C23.7117 27.2193 23.7164 27.1493 23.7164 27.084C23.7257 27.0187 23.7397 26.9627 23.7584 26.916V26.832C23.7584 26.7853 23.763 26.748 23.7724 26.72C23.7724 26.6827 23.7724 26.65 23.7724 26.622C23.7817 26.5847 23.7957 26.5473 23.8144 26.51C23.833 26.4353 23.8564 26.37 23.8844 26.314C23.9124 26.2487 23.9544 26.188 24.0104 26.132C24.0664 26.076 24.1084 26.02 24.1364 25.964C24.1737 25.908 24.2017 25.852 24.2204 25.796C24.2577 25.684 24.1224 25.628 23.8144 25.628L22.0364 25.852L21.7844 25.684L21.2384 26.006L20.2444 26.188L19.6564 25.838C19.5537 25.0633 19.563 24.662 19.6844 24.634C19.7497 24.6153 19.8104 24.6013 19.8664 24.592C19.9317 24.5733 20.0017 24.5547 20.0764 24.536C20.1417 24.5267 20.2117 24.5127 20.2864 24.494C20.361 24.4753 20.4264 24.4613 20.4824 24.452C20.585 24.4147 20.6504 24.396 20.6784 24.396L21.6304 24.2C21.6677 24.2 21.7144 24.1953 21.7704 24.186C21.8264 24.1767 21.8917 24.1673 21.9664 24.158C22.0317 24.158 22.1017 24.1533 22.1764 24.144C22.2604 24.1347 22.3397 24.1253 22.4144 24.116C22.545 24.116 22.7317 24.102 22.9744 24.074L23.7724 24.186L25.7744 24.046L26.1244 24.41C26.0684 24.5967 26.0404 24.8113 26.0404 25.054C26.0404 25.2873 26.073 25.4273 26.1384 25.474C26.129 25.4927 26.1197 25.5113 26.1104 25.53C26.1104 25.5487 26.101 25.572 26.0824 25.6L25.9984 25.768C25.9797 25.8053 25.961 25.8427 25.9424 25.88C25.9237 25.908 25.9097 25.936 25.9004 25.964C25.863 26.0293 25.835 26.0947 25.8164 26.16L25.8584 26.552L25.6484 28.652ZM26.3904 21.582C26.297 21.5633 26.199 21.5493 26.0964 21.54C25.9937 21.5213 25.863 21.5073 25.7044 21.498L25.4104 22.002L25.3544 23.108L24.5284 23.374H24.0104L23.4644 23.36L23.5624 21.652L23.4364 21.26L23.5484 19.776L23.4364 18.964L23.4784 18.068L23.8704 17.48L25.1444 17.34C25.359 17.3213 25.4944 17.4053 25.5504 17.592C25.5784 17.6853 25.597 17.7833 25.6064 17.886C25.6157 17.9793 25.6157 18.068 25.6064 18.152L25.5084 20.084L25.7324 20.224L27.1044 19.65C27.1604 19.65 27.2257 19.65 27.3004 19.65C27.375 19.6407 27.4544 19.636 27.5384 19.636C27.5757 19.636 27.613 19.6407 27.6504 19.65C27.6877 19.65 27.725 19.65 27.7624 19.65H28.0004L28.4904 19.958L28.3364 21.106L26.3904 21.582Z" fill="#FF0000"/>
<path d="M47.8493 7.072C48.2973 7.072 48.7853 7.472 49.3133 8.272C49.8413 9.056 50.1053 9.704 50.1053 10.216C50.1053 10.728 50.0013 10.984 49.7933 10.984C49.6973 10.984 49.4893 10.952 49.1693 10.888C48.8653 10.824 48.6013 10.792 48.3773 10.792C47.5773 10.792 46.6413 11.304 45.5693 12.328C44.4973 13.352 43.5773 14.576 42.8093 16C42.0573 17.424 41.6813 18.656 41.6813 19.696C41.6813 20.208 41.7613 20.584 41.9213 20.824C42.0813 21.048 42.3693 21.16 42.7853 21.16C43.8893 21.16 45.0093 20.992 46.1453 20.656C47.2813 20.32 48.2173 19.984 48.9533 19.648C49.6893 19.296 50.1053 19.12 50.2013 19.12C50.3133 19.12 50.4173 19.216 50.5133 19.408C50.6253 19.584 50.6813 19.8 50.6813 20.056C50.6813 20.6 50.2493 21.248 49.3853 22C48.5213 22.736 47.4733 23.368 46.2413 23.896C45.0253 24.424 43.9213 24.688 42.9293 24.688C41.9373 24.688 40.8893 24.088 39.7853 22.888C38.6973 21.688 38.1533 20.544 38.1533 19.456C38.1533 17.936 38.6413 16.208 39.6173 14.272C40.5933 12.32 41.8493 10.632 43.3853 9.208C44.9373 7.784 46.4253 7.072 47.8493 7.072ZM55.6298 22.264C56.4938 21.88 57.2458 21.104 57.8858 19.936C58.5258 18.768 58.8458 17.672 58.8458 16.648C58.8458 15.624 58.7018 14.92 58.4138 14.536C57.7258 14.936 57.0378 15.776 56.3498 17.056C55.6778 18.336 55.3418 19.464 55.3418 20.44C55.3418 21.4 55.4378 22.008 55.6298 22.264ZM52.1258 20.68C52.1258 18.68 52.7418 16.784 53.9738 14.992C55.2218 13.2 56.4538 12.304 57.6698 12.304C58.8858 12.304 59.9098 12.736 60.7418 13.6C61.5738 14.448 61.9898 15.48 61.9898 16.696C61.9898 17.896 61.7018 19.12 61.1258 20.368C60.5498 21.616 59.7418 22.656 58.7018 23.488C57.6618 24.304 56.5498 24.712 55.3658 24.712C54.4858 24.712 53.7258 24.32 53.0858 23.536C52.4458 22.752 52.1258 21.8 52.1258 20.68ZM72.9591 5.608C73.3431 5.608 73.8471 5.96 74.4711 6.664C75.0951 7.352 75.4071 8 75.4071 8.608C75.4071 8.912 75.1271 10.176 74.5671 12.4C74.0071 14.624 73.6711 15.968 73.5591 16.432C72.2791 21.952 71.3431 24.712 70.7511 24.712C70.4151 24.712 70.0391 24.512 69.6231 24.112C69.2071 23.712 68.9991 23.32 68.9991 22.936C68.9991 22.856 69.0071 22.792 69.0231 22.744C67.4231 24.056 66.2711 24.712 65.5671 24.712C64.8791 24.712 64.2071 24.344 63.5511 23.608C62.9111 22.856 62.5911 22.176 62.5911 21.568C62.5911 20.96 62.6711 20.288 62.8311 19.552C63.0071 18.8 63.2711 18.008 63.6231 17.176C63.9751 16.344 64.3751 15.568 64.8231 14.848C65.2871 14.112 65.8391 13.512 66.4791 13.048C67.1351 12.568 67.8071 12.328 68.4951 12.328C69.5191 12.328 70.3591 12.848 71.0151 13.888C71.8791 10.096 72.2951 7.576 72.2631 6.328C72.2631 5.848 72.4951 5.608 72.9591 5.608ZM65.8791 21.664C66.2791 21.664 66.9511 21.32 67.8951 20.632C68.8551 19.944 69.5671 19.072 70.0311 18.016C70.0151 17.888 70.0071 17.608 70.0071 17.176C70.0071 16.744 69.8631 16.336 69.5751 15.952C69.2871 15.568 69.0231 15.376 68.7831 15.376C68.3031 15.376 67.8391 15.632 67.3911 16.144C66.9591 16.656 66.6151 17.264 66.3591 17.968C65.8151 19.456 65.5431 20.584 65.5431 21.352C65.5431 21.48 65.5591 21.568 65.5911 21.616C65.6391 21.648 65.7351 21.664 65.8791 21.664ZM77.5206 9.328C77.5206 8.912 77.7046 8.488 78.0726 8.056C78.4566 7.608 78.8246 7.384 79.1766 7.384C79.5446 7.384 79.9766 7.816 80.4726 8.68C80.9686 9.544 81.2166 10.176 81.2166 10.576C81.2166 10.96 81.0886 11.256 80.8326 11.464C80.5766 11.672 80.3126 11.776 80.0406 11.776C79.5766 11.776 79.0406 11.472 78.4326 10.864C77.8246 10.256 77.5206 9.744 77.5206 9.328ZM77.8806 12.328C78.4406 12.328 78.9366 12.648 79.3686 13.288C79.8166 13.928 80.0406 14.544 80.0406 15.136C80.0406 15.44 79.7606 16.536 79.2006 18.424C78.6566 20.296 78.1126 22.072 77.5686 23.752C77.3766 24.376 76.9846 24.688 76.3926 24.688C76.0406 24.688 75.7286 24.56 75.4566 24.304C75.2006 24.032 75.0726 23.688 75.0726 23.272C75.0726 22.84 75.2726 21.784 75.6726 20.104C76.0886 18.408 76.4006 16.968 76.6086 15.784C76.8326 14.584 77.0326 13.712 77.2086 13.168C77.4006 12.608 77.6246 12.328 77.8806 12.328ZM89.755 12.328C90.587 12.328 91.315 12.704 91.939 13.456C92.579 14.192 92.899 14.984 92.899 15.832C92.899 17.192 92.675 18.616 92.227 20.104C91.795 21.576 91.315 22.712 90.787 23.512C90.275 24.312 89.747 24.712 89.203 24.712C88.675 24.712 88.411 24.336 88.411 23.584C88.411 23.008 88.675 21.848 89.203 20.104C89.603 18.664 89.803 17.632 89.803 17.008C89.803 16.384 89.723 16.072 89.563 16.072C89.355 16.072 89.147 16.176 88.939 16.384C88.747 16.592 88.587 16.776 88.459 16.936C88.331 17.096 88.179 17.304 88.003 17.56C87.843 17.8 87.699 18.024 87.571 18.232C87.459 18.424 87.307 18.68 87.115 19C86.939 19.304 86.795 19.56 86.683 19.768C86.571 19.96 86.427 20.216 86.251 20.536C84.763 23.32 83.595 24.712 82.747 24.712C82.411 24.712 81.987 24.424 81.475 23.848C80.963 23.256 80.707 22.824 80.707 22.552C80.707 22.376 80.819 22 81.043 21.424C81.283 20.832 81.451 20.384 81.547 20.08C81.659 19.76 81.747 19.424 81.811 19.072C81.891 18.72 81.955 18.344 82.003 17.944C82.051 17.528 82.083 17.208 82.099 16.984C82.131 16.76 82.163 16.408 82.195 15.928C82.339 13.848 82.459 12.696 82.555 12.472C82.667 12.248 82.787 12.136 82.915 12.136C83.523 12.136 84.107 12.392 84.667 12.904C85.227 13.4 85.507 13.856 85.507 14.272C85.507 15.264 85.251 16.688 84.739 18.544C85.779 16.72 86.723 15.232 87.571 14.08C88.435 12.912 89.163 12.328 89.755 12.328ZM103.212 17.512C103.452 17.784 103.572 18.112 103.572 18.496C103.572 18.88 103.412 19.352 103.092 19.912C102.692 20.872 102.34 22.064 102.036 23.488C101.732 24.912 101.428 26.048 101.124 26.896C100.836 27.76 100.516 28.496 100.164 29.104C99.828 29.712 99.364 30.216 98.772 30.616C98.18 31.016 97.5 31.216 96.732 31.216C95.66 31.216 94.7 30.864 93.852 30.16C93.004 29.456 92.58 28.848 92.58 28.336C92.58 27.84 92.716 27.384 92.988 26.968C93.26 26.568 93.508 26.368 93.732 26.368C93.972 26.368 94.196 26.496 94.404 26.752C94.628 27.008 94.828 27.28 95.004 27.568C95.196 27.872 95.444 28.152 95.748 28.408C96.052 28.664 96.388 28.792 96.756 28.792C97.124 28.792 97.46 28.552 97.764 28.072C98.068 27.592 98.3 27.072 98.46 26.512C98.86 25.2 99.108 24.264 99.204 23.704C98.116 24.376 97.228 24.712 96.54 24.712C95.868 24.712 95.212 24.344 94.572 23.608C93.932 22.856 93.612 22.152 93.612 21.496C93.612 20.824 93.788 19.992 94.14 19C94.508 17.992 94.972 16.992 95.532 16C96.108 14.992 96.828 14.128 97.692 13.408C98.572 12.688 99.452 12.328 100.332 12.328C100.924 12.328 101.428 12.48 101.844 12.784C102.26 13.072 102.564 13.464 102.756 13.96C103.092 14.824 103.26 15.8 103.26 16.888C103.26 17.048 103.244 17.256 103.212 17.512ZM96.564 21.376C96.564 21.584 96.652 21.688 96.828 21.688C97.292 21.688 98.044 21.264 99.084 20.416C100.124 19.568 100.82 18.728 101.172 17.896V17.44C101.172 16.4 101.076 15.768 100.884 15.544C100.788 15.432 100.66 15.376 100.5 15.376C99.732 15.376 98.884 16.184 97.956 17.8C97.028 19.416 96.564 20.608 96.564 21.376Z" fill="black"/>
</svg>
